<svg id="Rabatt" xmlns="http://www.w3.org/2000/svg" viewBox="0 0 50 50">
  <defs>
    <style>
      .cls-1 {
        fill: #fff;
      }
    </style>
  </defs>
  <g>
    <path class="cls-1" d="M48.1,23.49l-1,11.35a5.08,5.08,0,0,1-1.22,2.87.93.93,0,0,0-.21.78,1.1,1.1,0,0,1,0,.18v4.71a1,1,0,0,1-1,.94H40.08a.94.94,0,0,1-.94-.94V38.67a1,1,0,0,0-.94-1H11.8a1,1,0,0,0-.94,1v4.71a.94.94,0,0,1-.94.94H5.21a1,1,0,0,1-1-.94V38.67a1.1,1.1,0,0,1,0-.18.93.93,0,0,0-.21-.78,5.08,5.08,0,0,1-1.22-2.87l-1-11.35a4.19,4.19,0,0,1,3.57-4.56,1,1,0,0,0,.8-1.06,1.82,1.82,0,0,1,0-.74,7,7,0,0,0,4.55,1.74H40.08a8.41,8.41,0,0,0,4.67-1.33,1.77,1.77,0,0,1,0,.61,1,1,0,0,0,.61,1,4.17,4.17,0,0,1,2.72,4.34M9.62,9.34c1.16-2.7,4.37-3.66,7-3.66H34.43c2.62,0,5.82,1,7,3.7L44,15.58a.05.05,0,0,1,0,0c-.51,1-2.83,1.37-3.87,1.37H10.86S8,17,7.16,15.09Zm37,8.31a3.33,3.33,0,0,0-.27-1.17L43.13,8.65c-1.5-3.58-5.48-4.86-8.7-4.86H16.61c-3.22,0-7.2,1.27-8.72,4.81L4.66,16.13a3.85,3.85,0,0,0-.28,1.11A6.07,6.07,0,0,0,0,23.65L1,35a6.05,6.05,0,0,0,1.41,3.62v4.77a2.83,2.83,0,0,0,2.83,2.83H9.92a2.83,2.83,0,0,0,2.83-2.83V39.61h24.5v3.77a2.83,2.83,0,0,0,2.83,2.83h4.71a2.83,2.83,0,0,0,2.83-2.83V38.61A6.92,6.92,0,0,0,49,35L50,23.65a6.05,6.05,0,0,0-3.32-6"/>
    <path class="cls-1" d="M41.5,29.24a2.36,2.36,0,1,1,2.35-2.35,2.36,2.36,0,0,1-2.35,2.35m0-6.6a4.25,4.25,0,1,0,4.24,4.25,4.26,4.26,0,0,0-4.24-4.25"/>
    <path class="cls-1" d="M8.5,29.24a2.36,2.36,0,1,1,2.36-2.35A2.36,2.36,0,0,1,8.5,29.24m0-6.6a4.25,4.25,0,1,0,4.25,4.25A4.26,4.26,0,0,0,8.5,22.64"/>
    <path class="cls-1" d="M32.64,26.91,31.6,30a3.28,3.28,0,0,1-2.83,2H21.23a3.28,3.28,0,0,1-2.83-2l-1-3.12a1,1,0,0,1,1-1.44H31.6a1,1,0,0,1,1,1.44m-1-3.32H18.4a2.85,2.85,0,0,0-2.83,3.92l1,3.12A5.14,5.14,0,0,0,21.23,34h7.54a5.14,5.14,0,0,0,4.62-3.32l1-3.12a2.85,2.85,0,0,0-2.83-3.92"/>
  </g>
</svg>
