<svg id="Rabatt" xmlns="http://www.w3.org/2000/svg" viewBox="0 0 50 50">
  <defs>
    <style>
      .cls-1 {
        fill: #fff;
      }
    </style>
  </defs>
  <g>
    <path class="cls-1" d="M15.62,34.59A2.35,2.35,0,1,1,18,32.24a2.35,2.35,0,0,1-2.35,2.35m0-6.55a4.2,4.2,0,1,0,4.2,4.2,4.2,4.2,0,0,0-4.2-4.2"/>
    <path class="cls-1" d="M41.67,10.59a2.5,2.5,0,0,0-.45-.12A109.62,109.62,0,0,0,25.05,9.16,110.19,110.19,0,0,0,8.77,10.48a3.6,3.6,0,0,0-.44.12v-.14a6.26,6.26,0,0,1,4.42-5.8,53.69,53.69,0,0,1,5.77-.9l.45,0,.24-.39a3.49,3.49,0,0,1,3.11-1.47h5.36a3.39,3.39,0,0,1,3,1.47l.24.39.45,0,1.29.14a42,42,0,0,1,4.54.66,6.34,6.34,0,0,1,4.43,5.9ZM8.34,13a1.28,1.28,0,0,1,.71-.68,108.93,108.93,0,0,1,16-1.29A107,107,0,0,1,40.94,12.3a1.32,1.32,0,0,1,.72.69c-.17,3.33-2.24,5.52-5.37,8.82-.48.51-1,1.05-1.52,1.62a2.54,2.54,0,0,1-1.44.64H16.67a2.48,2.48,0,0,1-1.43-.64l-1.48-1.57C10.6,18.52,8.51,16.31,8.34,13M41.67,35.37c0,2.35-1.76,5.28-4.35,5.9a56.37,56.37,0,0,1-24.56,0,6.34,6.34,0,0,1-4.43-5.9v-17a38.78,38.78,0,0,0,4.09,4.76l1.46,1.56a4.33,4.33,0,0,0,2.79,1.24H33.33a4.33,4.33,0,0,0,2.79-1.24l1.52-1.61a39.42,39.42,0,0,0,4-4.69Zm-4-32.62a45.51,45.51,0,0,0-4.76-.69L32,2a5.33,5.33,0,0,0-4.36-2H22.32a5.41,5.41,0,0,0-4.43,2,53.46,53.46,0,0,0-5.55.88,8.14,8.14,0,0,0-5.86,7.61V35.37a8.19,8.19,0,0,0,5.87,7.7A58,58,0,0,0,25,44.48a58.22,58.22,0,0,0,12.7-1.41,8.16,8.16,0,0,0,5.79-7.7V10.46a8.21,8.21,0,0,0-5.87-7.71"/>
    <path class="cls-1" d="M34.38,34.59a2.35,2.35,0,1,1,2.35-2.35,2.36,2.36,0,0,1-2.35,2.35m0-6.55a4.2,4.2,0,1,0,4.2,4.2,4.2,4.2,0,0,0-4.2-4.2"/>
    <path class="cls-1" d="M34.91,45.64A.93.93,0,1,0,33.6,47l2.78,2.78a.93.93,0,0,0,1.31-1.31Z"/>
    <path class="cls-1" d="M15.09,45.64l-2.78,2.78a.93.93,0,0,0,1.31,1.31L16.39,47a.92.92,0,0,0-1.3-1.31"/>
  </g>
</svg>
