<svg id="Rabatt" xmlns="http://www.w3.org/2000/svg" viewBox="0 0 50 50">
  <defs>
    <style>
      .cls-1 {
        fill: #fff;
      }
    </style>
  </defs>
  <g>
    <path class="cls-1" d="M25,48.15A23.15,23.15,0,1,1,48.15,25,23.18,23.18,0,0,1,25,48.15M25,0A25,25,0,1,0,50,25,25,25,0,0,0,25,0"/>
    <path class="cls-1" d="M24.54,13a2.32,2.32,0,1,1-2.32,2.32A2.32,2.32,0,0,1,24.54,13m0,6.48a4.17,4.17,0,1,0-4.17-4.16,4.16,4.16,0,0,0,4.17,4.16"/>
    <path class="cls-1" d="M29.63,35.19H20.37v-.28c1.38-.54,2.78-1.36,2.78-2.5V24.85l0-.14a5.56,5.56,0,0,0-.87-1.56h4.62v9.26c0,.33,0,1.2,2.78,2.46Zm-.93-3V21.3H18.52v1.85a3.13,3.13,0,0,1,2.78,2v7.12a6.81,6.81,0,0,1-2.15,1.09l-.63.21V37h13v-3.4l-.57-.23A11,11,0,0,1,28.7,32.2"/>
  </g>
</svg>
