<svg id="Rabatt" xmlns="http://www.w3.org/2000/svg" viewBox="0 0 50 50">
  <defs>
    <style>
      .cls-1 {
        fill: #fff;
      }
    </style>
  </defs>
  <path class="cls-1" d="M2,45.53a3,3,0,0,1,1.82-1.85H46.28c1.13,0,1.57,1,1.74,1.85ZM50,46.25c-.07-1.64-.89-4.42-3.7-4.42H3.7a.71.71,0,0,0-.29.05A4.94,4.94,0,0,0,0,46.46a.92.92,0,0,0,.93.92H49.07a.92.92,0,0,0,.93-.92,1.49,1.49,0,0,0,0-.21"/>
  <path class="cls-1" d="M4.92,35.3l.17-.07c2.58-1.48,3.12-4.76,3.7-8.24C9.87,20.5,11.1,13.13,25,13.13S40.11,20.5,41.19,27c.58,3.48,1.12,6.76,3.7,8.24l.16.07a1.93,1.93,0,0,1,1.23,1.9c0,.93,0,.93-.93.93H4.63c-.91,0-.93,0-.93-.93a2,2,0,0,1,1.22-1.9M18.51,6.66a1.61,1.61,0,0,1,1.1-1.41A25.61,25.61,0,0,1,25,4.68a25.87,25.87,0,0,1,5.36.56,1.62,1.62,0,0,1,1.12,1.42,1,1,0,0,1-.94.92H19.46a1,1,0,0,1-.95-.92M4.63,40H45.35c.9,0,2.78,0,2.78-2.78a3.79,3.79,0,0,0-2.37-3.61C44,32.52,43.53,29.82,43,26.69c-1.06-6.37-2.51-15-17.1-15.39V9.43h4.65a2.81,2.81,0,0,0,2.75-2.78,3.48,3.48,0,0,0-2.56-3.21,27.47,27.47,0,0,0-11.56,0,3.48,3.48,0,0,0-2.54,3.21,2.82,2.82,0,0,0,2.78,2.78h4.62v1.85s0,0,0,0c-14.59.35-16,9-17.1,15.39-.52,3.13-1,5.83-2.75,6.9A3.79,3.79,0,0,0,1.85,37.2C1.85,40,3.73,40,4.63,40"/>
  <path class="cls-1" d="M12.5,30.51a.78.78,0,0,0,.33.07A.94.94,0,0,0,13.7,30a17.94,17.94,0,0,0,.8-3.44c.51-3.05,1-6.22,4.39-7.84a.93.93,0,0,0-.8-1.67c-4.22,2-4.89,6-5.42,9.21a15.89,15.89,0,0,1-.7,3.07.92.92,0,0,0,.53,1.19"/>
</svg>
