<svg id="Rabatt" xmlns="http://www.w3.org/2000/svg" viewBox="0 0 50 50">
  <defs>
    <style>
      .cls-1 {
        fill: #fff;
      }
    </style>
  </defs>
  <path class="cls-1" d="M38.89,45.83H11.11A16.52,16.52,0,0,1,4.6,44l40.74-.07a17.19,17.19,0,0,1-6.45,1.92M6.48,38.1V35.65h3.71a.88.88,0,0,0,.82-.49A10.65,10.65,0,0,1,15,31H31a8.93,8.93,0,0,0-3.21,4.49.9.9,0,0,0,.67,1.11.82.82,0,0,0,.22,0,.93.93,0,0,0,.9-.7,5.76,5.76,0,0,1,4-4,1,1,0,0,0,.68-1h3a14.3,14.3,0,0,0-.15,1.77.67.67,0,0,0,0,.2c0,.55,0,1.14,0,1.79,0,2.24-2.35,3.85-2.37,3.86a.93.93,0,0,0,.52,1.7.9.9,0,0,0,.51-.16,7.66,7.66,0,0,0,3.14-4.7c1.82,2.39,3.75,5.35,3.75,6.71H9.7ZM25,9.72A20.4,20.4,0,0,1,45.35,29.17H4.65A20.4,20.4,0,0,1,25,9.72M23.15,6A1.85,1.85,0,1,1,25,7.87,1.85,1.85,0,0,1,23.15,6M50,42.79a.93.93,0,0,0-.89-.66H44.44c0-2.78-4.34-8.16-5.53-9.57A8,8,0,0,1,39,31h7.28a.88.88,0,0,0,.92-.88,1.23,1.23,0,0,0,0-.19A22.24,22.24,0,0,0,28.07,8.09a3.7,3.7,0,1,0-6.14,0A22.33,22.33,0,0,0,2.78,30.17a.78.78,0,0,0,.88.79h8.07A11.47,11.47,0,0,0,9.64,33.8H5.56a.92.92,0,0,0-.93.92v3.71a.9.9,0,0,0,.2.57l2.5,3.13H.93a.93.93,0,0,0-.52,1.7c5.73,3.81,10.5,3.85,10.7,3.85H38.89c.2,0,5,0,10.7-3.85a.93.93,0,0,0,.37-1"/>
  <path class="cls-1" d="M18.46,13.75A17.7,17.7,0,0,0,8,25.66a.93.93,0,0,0,.66,1.13,1,1,0,0,0,.24,0,.92.92,0,0,0,.89-.69,15.81,15.81,0,0,1,9.39-10.66.92.92,0,0,0,.52-1.2.94.94,0,0,0-1.21-.52"/>
  <path class="cls-1" d="M21.71,33.89c-2.16-1.08-6.6,2.32-8.41,3.82a.93.93,0,0,0,1.18,1.43c2.67-2.22,5.72-3.94,6.4-3.59,1.37.68,4.25,4.06,5.25,5.31a.93.93,0,0,0,.72.34.89.89,0,0,0,.58-.2.92.92,0,0,0,.14-1.3c-.39-.49-3.88-4.82-5.86-5.81"/>
</svg>
