<svg id="Rabatt" xmlns="http://www.w3.org/2000/svg" viewBox="0 0 50 50">
  <defs>
    <style>
      .cls-1 {
        fill: #fff;
      }
    </style>
  </defs>
  <path class="cls-1" d="M11,4.64A4.94,4.94,0,1,1,6.1,9.58,4.94,4.94,0,0,1,11,4.64M11,17a7.41,7.41,0,1,0-7.4-7.4A7.41,7.41,0,0,0,11,17"/>
  <path class="cls-1" d="M19.67,34.25c0,.76-.41,1.24-.62,1.24-1.7,0-3.08,1.66-3.08,3.7v4.93a1.24,1.24,0,0,1-1.24,1.24H12.27V38A1.24,1.24,0,1,0,9.8,38v7.4H7.33A1.23,1.23,0,0,1,6.1,44.12V39.19c0-2-1.39-3.7-3.09-3.7-.21,0-.62-.48-.62-1.24V23.15a1.24,1.24,0,0,1,1.24-1.23h14.8a1.23,1.23,0,0,1,1.24,1.23Zm-1.24-14.8H3.63a3.7,3.7,0,0,0-3.7,3.7v11.1C-.07,36.29,1.31,38,3,38c.21,0,.62.48.62,1.23v4.93a3.71,3.71,0,0,0,3.7,3.71h7.4a3.71,3.71,0,0,0,3.7-3.71V39.19c0-.75.41-1.23.62-1.23,1.7,0,3.09-1.67,3.09-3.71V23.15a3.71,3.71,0,0,0-3.71-3.7"/>
  <path class="cls-1" d="M38.18,4.64a4.94,4.94,0,1,1-4.94,4.94,4.94,4.94,0,0,1,4.94-4.94m0,12.34a7.41,7.41,0,1,0-7.41-7.4A7.41,7.41,0,0,0,38.18,17"/>
  <path class="cls-1" d="M47.37,36.52a.69.69,0,0,1-.56.2H29.54a.69.69,0,0,1-.56-.2.67.67,0,0,1,0-.6l3.57-12.53a2.27,2.27,0,0,1,2-1.47h7.41a2.26,2.26,0,0,1,2,1.47l3.58,12.53a.7.7,0,0,1-.05.6m-5.49,7.61a1.24,1.24,0,0,1-1.24,1.23H39.41V39.19h2.47Zm-7.41,0V39.19h2.47v6.17H35.71a1.24,1.24,0,0,1-1.24-1.23M46.21,22.71a4.7,4.7,0,0,0-4.33-3.26H34.47a4.71,4.71,0,0,0-4.33,3.27L26.56,35.24a3,3,0,0,0,3,3.95H32v4.94a3.7,3.7,0,0,0,3.7,3.7h4.93a3.71,3.71,0,0,0,3.71-3.7V39.19h2.46a3,3,0,0,0,3-3.95Z"/>
</svg>
