<svg id="Rabatt" xmlns="http://www.w3.org/2000/svg" viewBox="0 0 50 50">
  <defs>
    <style>
      .cls-1 {
        fill: #fff;
      }
    </style>
  </defs>
  <g>
    <path class="cls-1" d="M1.92,6.74,3.34,21.09A6.47,6.47,0,0,0,5,24.36L22.69,42.1,42.12,22.66,24.29,4.83a7.12,7.12,0,0,0-3.64-1.56L6.77,1.9l-.55,0A4.27,4.27,0,0,0,3,3.23,4.49,4.49,0,0,0,1.92,6.74M27.83,47.25a2.93,2.93,0,0,0,2,.88,1.87,1.87,0,0,0,1.34-.52L47.57,31.23c.85-.84.66-2.45-.4-3.52L43.44,24,24,43.42ZM1.59,2A6.23,6.23,0,0,1,7,0L20.83,1.41a8.82,8.82,0,0,1,4.78,2.1L48.49,26.39a4.39,4.39,0,0,1,.4,6.16L32.51,48.94A3.75,3.75,0,0,1,29.85,50a4.79,4.79,0,0,1-3.34-1.43L3.63,25.68a8.3,8.3,0,0,1-2.15-4.4L.06,6.93A6.36,6.36,0,0,1,1.59,2"/>
    <path class="cls-1" d="M10.63,13.41a2.81,2.81,0,1,0-2.8-2.8,2.8,2.8,0,0,0,2.8,2.8m0-7.48A4.68,4.68,0,1,1,6,10.61a4.68,4.68,0,0,1,4.67-4.68"/>
    <path class="cls-1" d="M25.09,16.51l-6.66,12h1.21l6.66-12Zm2.67,5.61a2.08,2.08,0,0,0-1.82-1,2,2,0,0,0-1.81,1,5.21,5.21,0,0,0-.61,2.81,5.18,5.18,0,0,0,.63,2.8,2,2,0,0,0,1.79,1,2.07,2.07,0,0,0,1.85-1,5.17,5.17,0,0,0,.63-2.82,4.91,4.91,0,0,0-.66-2.79M25,22.83a1,1,0,0,1,1-.68,1.07,1.07,0,0,1,1,.68,5,5,0,0,1,.33,2.08A5.12,5.12,0,0,1,27,27a1.08,1.08,0,0,1-1,.68A1,1,0,0,1,25,27a5.59,5.59,0,0,1-.3-2.1,5.4,5.4,0,0,1,.3-2.08m-4.41-5.51a2.07,2.07,0,0,0-1.83-1,2,2,0,0,0-1.81.95,5.14,5.14,0,0,0-.62,2.8,5.17,5.17,0,0,0,.64,2.81,2,2,0,0,0,1.79,1,2.06,2.06,0,0,0,1.84-1,5.16,5.16,0,0,0,.63-2.83,5,5,0,0,0-.64-2.77M17.72,18a1,1,0,0,1,1-.69c.9,0,1.34.92,1.34,2.77s-.44,2.8-1.34,2.8a1,1,0,0,1-1-.7,5.59,5.59,0,0,1-.3-2.1,5.47,5.47,0,0,1,.3-2.08"/>
  </g>
</svg>
