<svg id="Rabatt" xmlns="http://www.w3.org/2000/svg" viewBox="0 0 50 50">
  <defs>
    <style>
      .cls-1 {
        fill: #fff;
      }
    </style>
  </defs>
  <g>
    <path class="cls-1" d="M33.53,47.36a4.43,4.43,0,0,1-5.05,0,6,6,0,0,0-2.57-1s0,0,0-.06V18.64c3,.42,12,2.17,19.34,8.54-1.18,4.56-7,15.45-9.76,19.29a6.4,6.4,0,0,0-2,.89m-12,0a4.12,4.12,0,0,1-2.53.79,4.11,4.11,0,0,1-2.52-.79,6.51,6.51,0,0,0-2-.89c-2.8-3.83-8.58-14.73-9.76-19.29,7.33-6.36,16.38-8.12,19.34-8.54V46.3s0,0,0,.06a6,6,0,0,0-2.59,1M11.11,15.74a.93.93,0,0,1,.93-.92H38a.93.93,0,0,1,.93.92v5a41.2,41.2,0,0,0-13.82-4.08h-.14a41.2,41.2,0,0,0-13.82,4.08Zm3.71-6.48a.93.93,0,0,1,.92-.93H34.26a.93.93,0,0,1,.92.93V13H32.41V10.19a.93.93,0,0,0-1.86,0V13H25.93V10.19a.93.93,0,1,0-1.86,0V13H19.44V10.19a.93.93,0,1,0-1.85,0V13H14.82Zm34.25,37a5.88,5.88,0,0,0-3.49,1.06,4.45,4.45,0,0,1-5.06,0,5.87,5.87,0,0,0-2.68-1C40.91,41.66,46.31,31.49,47.2,27a.92.92,0,0,0-.28-.87,35.56,35.56,0,0,0-6.27-4.47,1,1,0,0,0,.09-.39V15.74A2.79,2.79,0,0,0,38,13H37V9.26a2.79,2.79,0,0,0-2.78-2.78H15.74A2.79,2.79,0,0,0,13,9.26V13H12a2.79,2.79,0,0,0-2.78,2.78V21.3a1,1,0,0,0,.09.39,35.56,35.56,0,0,0-6.27,4.47A.92.92,0,0,0,2.8,27c.89,4.46,6.29,14.62,9.36,19.31a6.08,6.08,0,0,0-2.7,1,4.08,4.08,0,0,1-2.52.79,4.11,4.11,0,0,1-2.52-.79A5.88,5.88,0,0,0,.93,46.3a.93.93,0,1,0,0,1.85,4.11,4.11,0,0,1,2.52.79A5.88,5.88,0,0,0,6.94,50a5.89,5.89,0,0,0,3.5-1.06A4.08,4.08,0,0,1,13,48.15a4.08,4.08,0,0,1,2.52.79A5.88,5.88,0,0,0,19,50a5.89,5.89,0,0,0,3.5-1.06,4.41,4.41,0,0,1,5,0,6.29,6.29,0,0,0,7,0,4.43,4.43,0,0,1,5,0,6.31,6.31,0,0,0,7,0,4.08,4.08,0,0,1,2.52-.79.93.93,0,1,0,0-1.85"/>
    <path class="cls-1" d="M22.22,5.56a.93.93,0,0,0,.93-.93V2.78a.93.93,0,0,1,.92-.93h1.86a.93.93,0,0,1,.92.93V4.63a.93.93,0,1,0,1.85,0V2.78A2.78,2.78,0,0,0,25.93,0H24.07A2.78,2.78,0,0,0,21.3,2.78V4.63a.93.93,0,0,0,.92.93"/>
    <path class="cls-1" d="M37,32.41a.93.93,0,0,0,0-1.85,1.75,1.75,0,0,1-.93-.17V27.94a1.92,1.92,0,0,1,.93-.16.93.93,0,0,0,0-1.85c-2.75,0-2.78,1.77-2.78,1.85v2.78c0,.07,0,1.85,2.78,1.85"/>
  </g>
</svg>
