<?xml version="1.0" encoding="UTF-8" standalone="no"?><!DOCTYPE svg PUBLIC "-//W3C//DTD SVG 1.1//EN" "http://www.w3.org/Graphics/SVG/1.1/DTD/svg11.dtd"><svg width="100%" height="100%" viewBox="0 0 550 388" version="1.1" xmlns="http://www.w3.org/2000/svg" xmlns:xlink="http://www.w3.org/1999/xlink" xml:space="preserve" xmlns:serif="http://www.serif.com/" style="fill-rule:evenodd;clip-rule:evenodd;stroke-linejoin:round;stroke-miterlimit:2;"><path d="M538.438,60.625c-6.25,-23.75 -25,-42.5 -48.75,-49.062c-42.813,-11.563 -214.688,-11.563 -214.688,-11.563c0,-0 -171.875,-0 -215,11.563c-23.75,6.25 -42.187,24.999 -48.75,49.062c-11.25,43.125 -11.25,133.125 -11.25,133.125c0,0 0,90 11.563,133.125c6.249,23.75 24.999,42.5 48.749,49.062c42.813,11.563 214.688,11.563 214.688,11.563c0,0 171.875,0 215,-11.562c23.75,-6.25 42.188,-25 48.75,-49.063c11.25,-43.125 11.25,-133.125 11.25,-133.125c0,0 0,-90 -11.563,-133.125Zm-319.687,215l0,-163.75l143.75,81.875l-143.75,81.875Z" style="fill:#fff;fill-rule:nonzero;"/></svg>