<?xml version="1.0" encoding="utf-8"?>
<!-- Generator: Adobe Illustrator 24.2.3, SVG Export Plug-In . SVG Version: 6.00 Build 0)  -->
<svg version="1.1" id="Ebene_1" xmlns="http://www.w3.org/2000/svg" xmlns:xlink="http://www.w3.org/1999/xlink" x="0px" y="0px"
	 viewBox="0 0 195 90" style="enable-background:new 0 0 195 90;" xml:space="preserve">
<style type="text/css">
	.st0{fill:#FFFFFF;}
	.st1{fill:#9B907B;}
	.st2{fill:#8DACC6;}
</style>
<g>
	<path class="st0" d="M63.1,26.7h5.1v12h0.1c1.2-1.9,3.4-3.2,6.5-3.2c4.9,0,8.4,4.1,8.4,10.2c0,7.2-4.6,10.8-9.1,10.8
		c-2.6,0-4.9-1-6.4-3.5h-0.1l-0.2,3h-4.3c0.1-1.4,0.2-3.6,0.2-5.7V26.7z M68.2,47.7c0,0.4,0,0.8,0.1,1.2c0.5,2,2.3,3.6,4.5,3.6
		c3.2,0,5.1-2.6,5.1-6.6c0-3.6-1.7-6.5-5.1-6.5c-2.1,0-3.9,1.5-4.5,3.7c-0.1,0.4-0.2,0.8-0.2,1.3V47.7z"/>
	<rect x="87.3" y="26.7" class="st0" width="5.1" height="29.4"/>
	<path class="st0" d="M103.3,30.3c0,1.5-1.1,2.7-2.9,2.7c-1.7,0-2.8-1.2-2.8-2.7c0-1.6,1.2-2.8,2.9-2.8
		C102.2,27.5,103.3,28.7,103.3,30.3 M97.9,35.9h5.1V56h-5.1V35.9z"/>
	<path class="st0" d="M123.3,55.4c-1.1,0.5-3.2,1.1-5.7,1.1c-6.3,0-10.4-4.1-10.4-10.3c0-6,4.1-10.8,11.2-10.8c1.9,0,3.8,0.4,4.9,1
		l-0.9,3.8c-0.8-0.4-2-0.8-3.8-0.8c-3.9,0-6.2,2.9-6.2,6.5c0,4.1,2.7,6.5,6.2,6.5c1.8,0,3-0.4,4-0.8L123.3,55.4z"/>
	<path class="st0" d="M132.1,44.7L132.1,44.7c0.6-0.8,1.2-1.7,1.7-2.4l4.9-6.5h6.1l-7.4,8.2l8.5,11.9h-6.2l-5.8-8.9l-1.7,2V56h-5.1
		V26.7h5.1V44.7z"/>
	<path class="st0" d="M0.9,51.6c1.6,1,4,1.8,6.5,1.8c3.7,0,5.8-1.9,5.8-4.8c0-2.6-1.5-4.1-5.3-5.5c-4.6-1.6-7.4-4-7.4-7.9
		c0-4.3,3.6-7.6,9-7.6c2.9,0,4.9,0.7,6.2,1.4l-1,2.9c-0.9-0.5-2.8-1.3-5.3-1.3c-3.8,0-5.3,2.3-5.3,4.2c0,2.6,1.7,3.9,5.5,5.4
		c4.7,1.8,7.1,4.1,7.1,8.2c0,4.3-3.2,8.1-9.8,8.1c-2.7,0-5.6-0.8-7.1-1.8L0.9,51.6z"/>
	<path class="st0" d="M23.9,46.7c0.1,4.9,3.2,6.9,6.9,6.9c2.6,0,4.2-0.5,5.5-1l0.6,2.6c-1.3,0.6-3.5,1.3-6.7,1.3
		c-6.2,0-9.8-4.1-9.8-10.1s3.6-10.8,9.4-10.8c6.5,0,8.3,5.8,8.3,9.4c0,0.7-0.1,1.3-0.1,1.7H23.9z M34.6,44.1c0-2.3-1-5.9-5-5.9
		c-3.7,0-5.3,3.4-5.6,5.9H34.6z"/>
	<path class="st0" d="M44.7,46.7c0.1,4.9,3.2,6.9,6.9,6.9c2.6,0,4.2-0.5,5.5-1l0.6,2.6c-1.3,0.6-3.5,1.3-6.7,1.3
		c-6.2,0-9.8-4.1-9.8-10.1s3.6-10.8,9.4-10.8c6.5,0,8.3,5.8,8.3,9.4c0,0.7-0.1,1.3-0.1,1.7H44.7z M55.3,44.1c0-2.3-1-5.9-5-5.9
		c-3.7,0-5.3,3.4-5.6,5.9H55.3z"/>
	<path class="st0" d="M56.9,61.9l-0.6,1.4h0l-0.6-1.4L55,62.3l0.9,1.2v0l-1.5-0.2V64l1.5-0.2v0L55,65.1l0.6,0.4l0.6-1.4h0l0.6,1.4
		l0.6-0.4l-1-1.2v0L58,64v-0.7l-1.5,0.2v0l0.9-1.2L56.9,61.9z M52.7,61.9l-0.6,1.4h0l-0.6-1.4l-0.6,0.3l0.9,1.2v0l-1.5-0.2V64
		l1.5-0.2v0l-0.9,1.2l0.6,0.4l0.6-1.4h0l0.6,1.4l0.6-0.4l-1-1.2v0l1.5,0.2v-0.7l-1.5,0.2v0l0.9-1.2L52.7,61.9z M48.6,61.9L48,63.3h0
		l-0.6-1.4l-0.6,0.3l0.9,1.2v0l-1.5-0.2V64l1.5-0.2v0l-0.9,1.2l0.6,0.4l0.6-1.4h0l0.6,1.4l0.6-0.4l-1-1.2v0l1.5,0.2v-0.7l-1.5,0.2v0
		l0.9-1.2L48.6,61.9z M44.4,61.9l-0.6,1.4h0l-0.6-1.4l-0.6,0.3l0.9,1.2v0L42,63.3V64l1.5-0.2v0l-0.9,1.2l0.6,0.4l0.6-1.4h0l0.6,1.4
		L45,65l-1-1.2v0l1.5,0.2v-0.7l-1.5,0.2v0l0.9-1.2L44.4,61.9z"/>
	<path class="st1" d="M113.1,79c14,0.4,23.6,8.6,38.7,7.4c-13.7,3.1-26.9-5.5-38.7-5.5c-12.3,0-27.6,9.3-41.5,9.2
		c-19.7-0.1-34.7-12.1-50.1-11C10.8,79.8,6.1,86,0,88.2c-0.7-8.8,10.4-16.4,27.2-15.6c17.1,0.8,29.9,13.6,50.1,12.9
		C89.3,85,101.2,78.6,113.1,79"/>
	<path class="st2" d="M156.3,6.5c14,0.4,23.6,8.6,38.7,7.4c-13.7,3.1-26.9-5.5-38.7-5.5c-12.3,0-27.6,9.3-41.5,9.2
		c-19.7-0.1-34.7-12.1-50.1-11c-10.7,0.8-15.4,7-21.5,9.2C42.5,6.8,53.7-0.7,70.4,0.1c17.1,0.8,29.9,13.6,50.1,12.9
		C132.5,12.5,144.4,6.1,156.3,6.5"/>
	<path class="st0" d="M187.9,69.2h0.9v-3c0-0.2,0-0.3,0.1-0.4c0.1-0.5,0.6-0.9,1.1-0.9c0.7,0,1,0.6,1,1.4v3h0.9v-3.1
		c0-0.2,0-0.3,0.1-0.5c0.2-0.4,0.6-0.8,1.1-0.8c0.7,0,1.1,0.6,1.1,1.5v2.8h0.9v-2.9c0-1.7-1-2.2-1.6-2.2c-0.5,0-0.8,0.1-1.1,0.3
		c-0.2,0.2-0.4,0.4-0.6,0.6h0c-0.2-0.6-0.7-1-1.4-1c-0.8,0-1.3,0.4-1.6,0.9h0l0-0.8h-0.8c0,0.4,0,0.8,0,1.3V69.2z M186.4,64.3h-0.9
		v3.1c0,0.2,0,0.3-0.1,0.5c-0.2,0.4-0.6,0.8-1.2,0.8c-0.8,0-1.1-0.6-1.1-1.6v-2.8h-0.9v2.9c0,1.7,0.9,2.2,1.7,2.2
		c0.9,0,1.4-0.5,1.6-0.9h0l0.1,0.8h0.8c0-0.4,0-0.8,0-1.4V64.3z M178.8,69.2h0.9v-2.7c0-0.2,0-0.3,0-0.4c0.1-0.7,0.6-1.2,1.2-1.2
		c0.1,0,0.2,0,0.3,0v-0.9c-0.1,0-0.2,0-0.3,0c-0.6,0-1.2,0.4-1.4,1.1h0l0-1h-0.8c0,0.5,0,1,0,1.6V69.2z M170.2,69.2h0.9v-3
		c0-0.2,0-0.3,0.1-0.4c0.1-0.5,0.6-0.9,1.1-0.9c0.7,0,1,0.6,1,1.4v3h0.9v-3.1c0-0.2,0-0.3,0.1-0.5c0.2-0.4,0.6-0.8,1.1-0.8
		c0.7,0,1.1,0.6,1.1,1.5v2.8h0.9v-2.9c0-1.7-1-2.2-1.6-2.2c-0.5,0-0.8,0.1-1.1,0.3c-0.2,0.2-0.4,0.4-0.6,0.6h0c-0.2-0.6-0.7-1-1.4-1
		c-0.8,0-1.3,0.4-1.6,0.9h0l0-0.8h-0.8c0,0.4,0,0.8,0,1.3V69.2z M165.3,66.4l0.7-2c0.1-0.4,0.2-0.8,0.4-1.3h0
		c0.1,0.4,0.2,0.8,0.4,1.3l0.7,2H165.3z M167.6,67.1l0.7,2.2h1l-2.4-6.9h-1.1l-2.4,6.9h0.9l0.7-2.2H167.6z M158.6,63.3v0.9h-0.8v0.7
		h0.8v2.7c0,0.6,0.1,1,0.4,1.3c0.2,0.2,0.6,0.4,1,0.4c0.4,0,0.6-0.1,0.8-0.1l0-0.7c-0.1,0-0.3,0.1-0.5,0.1c-0.5,0-0.7-0.4-0.7-1
		v-2.7h1.3v-0.7h-1.3v-1.2L158.6,63.3z M154.8,69.2h0.9v-2.7c0-0.2,0-0.3,0-0.4c0.1-0.7,0.6-1.2,1.2-1.2c0.1,0,0.2,0,0.3,0v-0.9
		c-0.1,0-0.2,0-0.3,0c-0.6,0-1.2,0.4-1.4,1.1h0l0-1h-0.8c0,0.5,0,1,0,1.6V69.2z M151.2,64.8c1.1,0,1.5,1.1,1.5,1.9
		c0,1.1-0.6,1.9-1.5,1.9c-0.9,0-1.5-0.8-1.5-1.9C149.7,65.8,150.1,64.8,151.2,64.8 M151.2,64.1c-1.4,0-2.5,1-2.5,2.6
		c0,1.6,1,2.6,2.4,2.6c1.2,0,2.5-0.8,2.5-2.6C153.6,65.2,152.7,64.1,151.2,64.1 M144.7,69c0.3,0.2,0.9,0.3,1.4,0.3
		c1.2,0,1.9-0.6,1.9-1.5c0-0.7-0.4-1.2-1.3-1.5c-0.6-0.2-0.9-0.4-0.9-0.8c0-0.4,0.3-0.7,0.8-0.7c0.5,0,0.8,0.2,1,0.3l0.2-0.7
		c-0.3-0.2-0.7-0.3-1.2-0.3c-1.1,0-1.7,0.7-1.7,1.5c0,0.6,0.4,1.1,1.3,1.4c0.7,0.2,0.9,0.5,0.9,0.9c0,0.4-0.3,0.7-1,0.7
		c-0.5,0-0.9-0.2-1.2-0.4L144.7,69z M140.4,66.3c0.1-0.6,0.5-1.5,1.4-1.5c1,0,1.3,0.9,1.3,1.5H140.4z M143.9,66.9c0-0.1,0-0.2,0-0.4
		c0-0.9-0.4-2.3-2.1-2.3c-1.5,0-2.3,1.2-2.3,2.7c0,1.5,0.9,2.5,2.4,2.5c0.8,0,1.3-0.2,1.7-0.3l-0.2-0.6c-0.3,0.1-0.7,0.3-1.4,0.3
		c-0.9,0-1.7-0.5-1.7-1.7H143.9z M135.2,63c0.1,0,0.5-0.1,0.9-0.1c0.9,0,1.6,0.4,1.6,1.3c0,0.8-0.6,1.3-1.6,1.3h-0.9V63z
		 M134.3,69.2h0.9v-3h0.8c0.8,0,1.2,0.4,1.4,1.3c0.2,0.9,0.3,1.5,0.5,1.7h0.9c-0.1-0.3-0.3-0.9-0.5-1.9c-0.2-0.7-0.5-1.2-1-1.4v0
		c0.7-0.2,1.3-0.9,1.3-1.8c0-0.5-0.2-1-0.5-1.3c-0.4-0.4-1.1-0.6-2-0.6c-0.6,0-1.3,0.1-1.7,0.1V69.2z M129.8,67.6
		c0,0.1,0,0.2-0.1,0.3c-0.1,0.4-0.6,0.8-1.2,0.8c-0.5,0-0.9-0.3-0.9-0.9c0-1,1.1-1.1,2.1-1.1V67.6z M130.7,66.2c0-1-0.4-2-1.9-2
		c-0.6,0-1.2,0.2-1.6,0.4l0.2,0.6c0.3-0.2,0.8-0.4,1.3-0.4c1,0,1.1,0.7,1.1,1.2v0.1c-1.9,0-3,0.6-3,1.9c0,0.7,0.5,1.4,1.5,1.4
		c0.7,0,1.2-0.3,1.5-0.7h0l0.1,0.6h0.8c-0.1-0.3-0.1-0.8-0.1-1.2V66.2z M122.2,66.4c0-0.1,0-0.3,0.1-0.4c0.2-0.7,0.8-1.1,1.4-1.1
		c1,0,1.5,0.9,1.5,1.9c0,1.1-0.6,1.9-1.5,1.9c-0.6,0-1.2-0.4-1.4-1.1c0-0.1,0-0.2,0-0.4V66.4z M121.3,71.3h0.9v-2.7h0
		c0.3,0.5,0.9,0.8,1.5,0.8c1.2,0,2.3-0.9,2.3-2.7c0-1.5-0.9-2.5-2.1-2.5c-0.8,0-1.4,0.4-1.8,1h0l0-0.9h-0.8c0,0.5,0,1,0,1.6V71.3z
		 M115.9,68.9c0.4,0.2,1.1,0.5,1.8,0.5c1.6,0,2.4-0.9,2.4-2c0-1-0.6-1.6-1.8-2c-1-0.4-1.4-0.7-1.4-1.3c0-0.5,0.4-1,1.3-1
		c0.6,0,1.1,0.2,1.3,0.3l0.2-0.7c-0.3-0.2-0.8-0.3-1.5-0.3c-1.3,0-2.2,0.8-2.2,1.9c0,1,0.7,1.6,1.8,2c0.9,0.4,1.3,0.7,1.3,1.4
		c0,0.7-0.5,1.2-1.5,1.2c-0.6,0-1.2-0.2-1.6-0.5L115.9,68.9z M111.6,67.1c0,0.1,0,0.3,0,0.4c-0.2,0.7-0.7,1.1-1.3,1.1
		c-1,0-1.5-0.8-1.5-1.8c0-1.1,0.6-1.9,1.5-1.9c0.7,0,1.2,0.5,1.3,1c0,0.1,0,0.3,0,0.4V67.1z M111.6,61.9v3h0
		c-0.2-0.4-0.7-0.8-1.5-0.8c-1.2,0-2.2,1-2.2,2.7c0,1.5,0.9,2.5,2.1,2.5c0.8,0,1.4-0.4,1.7-1h0l0,0.9h0.8c0-0.3,0-0.8,0-1.3v-6
		H111.6z M102.5,69.2h0.9v-3c0-0.2,0-0.3,0.1-0.4c0.2-0.5,0.6-0.9,1.2-0.9c0.9,0,1.2,0.7,1.2,1.5v2.9h0.9v-3c0-1.7-1.1-2.1-1.8-2.1
		c-0.8,0-1.4,0.5-1.6,0.9h0l-0.1-0.8h-0.8c0,0.4,0,0.8,0,1.3V69.2z M101,64.3h-0.9v3.1c0,0.2,0,0.3-0.1,0.5
		c-0.2,0.4-0.6,0.8-1.2,0.8c-0.8,0-1.1-0.6-1.1-1.6v-2.8h-0.9v2.9c0,1.7,0.9,2.2,1.7,2.2c0.9,0,1.4-0.5,1.6-0.9h0l0.1,0.8h0.8
		c0-0.4,0-0.8,0-1.4V64.3z M90.3,69c0.3,0.2,0.9,0.3,1.4,0.3c1.2,0,1.9-0.6,1.9-1.5c0-0.7-0.4-1.2-1.3-1.5c-0.6-0.2-0.9-0.4-0.9-0.8
		c0-0.4,0.3-0.7,0.8-0.7c0.5,0,0.8,0.2,1,0.3l0.2-0.7c-0.3-0.2-0.7-0.3-1.2-0.3c-1.1,0-1.7,0.7-1.7,1.5c0,0.6,0.4,1.1,1.3,1.4
		c0.7,0.2,0.9,0.5,0.9,0.9c0,0.4-0.3,0.7-1,0.7c-0.5,0-0.9-0.2-1.2-0.4L90.3,69z M86.2,69c0.3,0.2,0.9,0.3,1.4,0.3
		c1.2,0,1.9-0.6,1.9-1.5c0-0.7-0.4-1.2-1.3-1.5c-0.6-0.2-0.9-0.4-0.9-0.8c0-0.4,0.3-0.7,0.8-0.7c0.5,0,0.8,0.2,1,0.3l0.2-0.7
		c-0.3-0.2-0.7-0.3-1.2-0.3c-1.1,0-1.7,0.7-1.7,1.5c0,0.6,0.4,1.1,1.3,1.4c0.7,0.2,0.9,0.5,0.9,0.9c0,0.4-0.3,0.7-1,0.7
		c-0.5,0-0.9-0.2-1.2-0.4L86.2,69z M85,64.3h-0.9v3.1c0,0.2,0,0.3-0.1,0.5c-0.2,0.4-0.6,0.8-1.2,0.8c-0.8,0-1.1-0.6-1.1-1.6v-2.8
		h-0.9v2.9c0,1.7,0.9,2.2,1.7,2.2c0.9,0,1.4-0.5,1.6-0.9h0l0.1,0.8h0.8c0-0.4,0-0.8,0-1.4V64.3z M75.1,69.2h0.9v-3
		c0-0.2,0-0.3,0.1-0.4c0.2-0.5,0.6-0.9,1.2-0.9c0.9,0,1.2,0.7,1.2,1.5v2.9h0.9v-3c0-1.7-1.1-2.1-1.8-2.1c-0.8,0-1.4,0.5-1.6,0.9h0
		l-0.1-0.8h-0.8c0,0.4,0,0.8,0,1.3V69.2z M70.5,66.3c0.1-0.6,0.5-1.5,1.4-1.5c1,0,1.3,0.9,1.3,1.5H70.5z M74,66.9c0-0.1,0-0.2,0-0.4
		c0-0.9-0.4-2.3-2.1-2.3c-1.5,0-2.3,1.2-2.3,2.7c0,1.5,0.9,2.5,2.4,2.5c0.8,0,1.3-0.2,1.7-0.3l-0.2-0.6c-0.3,0.1-0.7,0.3-1.4,0.3
		c-0.9,0-1.7-0.5-1.7-1.7H74z M68.6,65.6h-2.3v0.7h1.4v2.1c-0.2,0.1-0.6,0.2-1.2,0.2c-1.6,0-2.7-1-2.7-2.8c0-1.7,1.1-2.8,2.8-2.8
		c0.7,0,1.2,0.1,1.5,0.3l0.2-0.7c-0.3-0.1-0.9-0.3-1.7-0.3c-2.3,0-3.7,1.5-3.8,3.6c0,1.1,0.4,2,1,2.6c0.7,0.6,1.5,0.9,2.6,0.9
		c0.9,0,1.7-0.2,2.1-0.4V65.6z"/>
	<path class="st0" d="M56.7,67c0.1,0,0.2,0,0.3,0c0.3,0,0.6,0.1,0.6,0.5c0,0.3-0.2,0.5-0.6,0.5h-0.3V67z M56.4,69.2h0.3v-1.1H57
		c0.3,0,0.4,0.1,0.5,0.5c0.1,0.3,0.1,0.5,0.2,0.6H58c-0.1-0.1-0.1-0.3-0.2-0.7c-0.1-0.3-0.2-0.4-0.4-0.5v0c0.3-0.1,0.5-0.3,0.5-0.6
		c0-0.2-0.1-0.4-0.2-0.5c-0.2-0.1-0.4-0.2-0.7-0.2c-0.2,0-0.5,0-0.6,0.1V69.2z M54.7,66.9c0.5,0,0.8,0.5,0.8,1
		c0,0.6-0.3,1.1-0.8,1.1c-0.5,0-0.8-0.5-0.8-1C53.9,67.4,54.2,66.9,54.7,66.9 M54.7,66.7c-0.7,0-1.2,0.5-1.2,1.3
		c0,0.8,0.5,1.3,1.1,1.3c0.6,0,1.2-0.5,1.2-1.3C55.9,67.2,55.4,66.7,54.7,66.7 M52.7,69.2H53v-2.5h-0.3V69.2z M50.9,67
		c0.1,0,0.2,0,0.3,0c0.3,0,0.6,0.1,0.6,0.5c0,0.3-0.2,0.5-0.6,0.5h-0.3V67z M50.6,69.2h0.3v-1.1h0.3c0.3,0,0.4,0.1,0.5,0.5
		c0.1,0.3,0.1,0.5,0.2,0.6h0.3c-0.1-0.1-0.1-0.3-0.2-0.7c-0.1-0.3-0.2-0.4-0.4-0.5v0c0.3-0.1,0.5-0.3,0.5-0.6c0-0.2-0.1-0.4-0.2-0.5
		c-0.2-0.1-0.4-0.2-0.7-0.2c-0.2,0-0.5,0-0.6,0.1V69.2z M50,67.8h-1V67h1v-0.3h-1.4v2.5h1.4V69H49V68h1V67.8z M46.9,67
		c0.1,0,0.2,0,0.3,0c0.4,0,0.6,0.2,0.6,0.5c0,0.4-0.2,0.5-0.6,0.5c-0.1,0-0.2,0-0.3,0V67z M46.6,69.2h0.3v-1c0.1,0,0.2,0,0.3,0
		c0.3,0,0.6-0.1,0.8-0.3c0.1-0.1,0.2-0.3,0.2-0.5c0-0.2-0.1-0.4-0.2-0.5c-0.1-0.1-0.4-0.2-0.7-0.2c-0.3,0-0.5,0-0.6,0V69.2z
		 M44.1,66.7v1.5c0,0.8,0.4,1.1,0.9,1.1c0.6,0,1-0.3,1-1.1v-1.5h-0.3v1.5c0,0.6-0.2,0.8-0.6,0.8c-0.3,0-0.6-0.2-0.6-0.8v-1.5H44.1z
		 M42,69.1c0.1,0.1,0.4,0.2,0.6,0.2c0.6,0,0.9-0.3,0.9-0.7c0-0.4-0.2-0.6-0.6-0.7c-0.4-0.1-0.5-0.3-0.5-0.5c0-0.2,0.1-0.4,0.5-0.4
		c0.2,0,0.4,0.1,0.5,0.1l0.1-0.3c-0.1-0.1-0.3-0.1-0.6-0.1c-0.5,0-0.8,0.3-0.8,0.7c0,0.4,0.3,0.6,0.7,0.7c0.3,0.1,0.5,0.3,0.5,0.5
		c0,0.3-0.2,0.4-0.5,0.4c-0.2,0-0.4-0.1-0.6-0.2L42,69.1z"/>
</g>
</svg>
